# xmcd
#
# Track frame offsets:
#	150
#	18536
#	34627
#	56757
#	73152
#	95676
#	118963
#	149834
#	173410
#	187374
#	211960
#	230464
#
# Disc length: 3569 seconds
#
# Revision: 1
# Processed by: cddbd v1.5.2PL0 Copyright (c) Steve Scherf et al.
# Submitted via: audiograbber 1.83.01
#
DISCID=bb0def0c
DTITLE=Time Out Blues Band - The Blues is Back in Town
DYEAR=1997
DGENRE=Blues
TTITLE0=The Blues is Back in Town
TTITLE1=At Midnight
TTITLE2=Blue as Blue can be
TTITLE3=Lovehunter
TTITLE4=Swamp of your Love
TTITLE5=Bound for New Orleans
TTITLE6=Aint good for me
TTITLE7=Uncle Freddies Rocking Chair
TTITLE8=Shes mine
TTITLE9=Rattlesnake Tongue
TTITLE10=I Used to be Bad
TTITLE11=You got to Love her with a Feelin
EXTD=
EXTT0=
EXTT1=
EXTT2=
EXTT3=
EXTT4=
EXTT5=
EXTT6=
EXTT7=
EXTT8=
EXTT9=
EXTT10=
EXTT11=
PLAYORDER=
